<svg xmlns="http://www.w3.org/2000/svg" height="200" width="200" viewBox="0 0 250 250" fill="red"><defs><clipPath id="a"><path d="M0 1000h2000v2000H0z"/></clipPath><mask id="b"><path fill="none" d="M0 0h2000v2000H0z"/><path fill="rgba(1,1,1,1)" transform="rotate(1 1500 1500)" d="M0 0h1000v1000H0z"/><path fill="rgba(2,2,2,1)" transform="rotate(2 1500 1500)" d="M0 0h1000v1000H0z"/><path fill="rgba(3,3,3,1)" transform="rotate(3 1500 1500)" d="M0 0h1000v1000H0z"/><path fill="rgba(3,3,3,1)" transform="rotate(4 1500 1500)" d="M0 0h1000v1000H0z"/><path fill="rgba(4,4,4,1)" transform="rotate(5 1500 1500)" d="M0 0h1000v1000H0z"/><path fill="rgba(5,5,5,1)" transform="rotate(6 1500 1500)" d="M0 0h1000v1000H0z"/><path fill="rgba(5,5,5,1)" transform="rotate(7 1500 1500)" d="M0 0h1000v1000H0z"/><path fill="rgba(6,6,6,1)" transform="rotate(8 1500 1500)" d="M0 0h1000v1000H0z"/><path fill="rgba(7,7,7,1)" transform="rotate(9 1500 1500)" d="M0 0h1000v1000H0z"/><path fill="rgba(8,8,8,1)" transform="rotate(10 1500 1500)" d="M0 0h1000v1000H0z"/><path fill="rgba(8,8,8,1)" transform="rotate(11 1500 1500)" d="M0 0h1000v1000H0z"/><path fill="rgba(9,9,9,1)" transform="rotate(12 1500 1500)" d="M0 0h1000v1000H0z"/><path fill="rgba(10,10,10,1)" transform="rotate(13 1500 1500)" d="M0 0h1000v1000H0z"/><path fill="rgba(10,10,10,1)" transform="rotate(14 1500 1500)" d="M0 0h1000v1000H0z"/><path fill="rgba(11,11,11,1)" transform="rotate(15 1500 1500)" d="M0 0h1000v1000H0z"/><path fill="rgba(12,12,12,1)" transform="rotate(16 1500 1500)" d="M0 0h1000v1000H0z"/><path fill="rgba(13,13,13,1)" transform="rotate(17 1500 1500)" d="M0 0h1000v1000H0z"/><path fill="rgba(13,13,13,1)" transform="rotate(18 1500 1500)" d="M0 0h1000v1000H0z"/><path fill="rgba(14,14,14,1)" transform="rotate(19 1500 1500)" d="M0 0h1000v1000H0z"/><path fill="rgba(15,15,15,1)" transform="rotate(20 1500 1500)" d="M0 0h1000v1000H0z"/><path fill="rgba(15,15,15,1)" transform="rotate(21 1500 1500)" d="M0 0h1000v1000H0z"/><path fill="rgba(16,16,16,1)" transform="rotate(22 1500 1500)" d="M0 0h1000v1000H0z"/><path fill="rgba(17,17,17,1)" transform="rotate(23 1500 1500)" d="M0 0h1000v1000H0z"/><path fill="rgba(17,17,17,1)" transform="rotate(24 1500 1500)" d="M0 0h1000v1000H0z"/><path fill="rgba(18,18,18,1)" transform="rotate(25 1500 1500)" d="M0 0h1000v1000H0z"/><path fill="rgba(19,19,19,1)" transform="rotate(26 1500 1500)" d="M0 0h1000v1000H0z"/><path fill="rgba(20,20,20,1)" transform="rotate(27 1500 1500)" d="M0 0h1000v1000H0z"/><path fill="rgba(20,20,20,1)" transform="rotate(28 1500 1500)" d="M0 0h1000v1000H0z"/><path fill="rgba(21,21,21,1)" transform="rotate(29 1500 1500)" d="M0 0h1000v1000H0z"/><path fill="rgba(22,22,22,1)" transform="rotate(30 1500 1500)" d="M0 0h1000v1000H0z"/><path fill="rgba(22,22,22,1)" transform="rotate(31 1500 1500)" d="M0 0h1000v1000H0z"/><path fill="rgba(23,23,23,1)" transform="rotate(32 1500 1500)" d="M0 0h1000v1000H0z"/><path fill="rgba(24,24,24,1)" transform="rotate(33 1500 1500)" d="M0 0h1000v1000H0z"/><path fill="rgba(25,25,25,1)" transform="rotate(34 1500 1500)" d="M0 0h1000v1000H0z"/><path fill="rgba(25,25,25,1)" transform="rotate(35 1500 1500)" d="M0 0h1000v1000H0z"/><path fill="rgba(26,26,26,1)" transform="rotate(36 1500 1500)" d="M0 0h1000v1000H0z"/><path fill="rgba(27,27,27,1)" transform="rotate(37 1500 1500)" d="M0 0h1000v1000H0z"/><path fill="rgba(27,27,27,1)" transform="rotate(38 1500 1500)" d="M0 0h1000v1000H0z"/><path fill="rgba(28,28,28,1)" transform="rotate(39 1500 1500)" d="M0 0h1000v1000H0z"/><path fill="rgba(29,29,29,1)" transform="rotate(40 1500 1500)" d="M0 0h1000v1000H0z"/><path fill="rgba(30,30,30,1)" transform="rotate(41 1500 1500)" d="M0 0h1000v1000H0z"/><path fill="rgba(30,30,30,1)" transform="rotate(42 1500 1500)" d="M0 0h1000v1000H0z"/><path fill="rgba(31,31,31,1)" transform="rotate(43 1500 1500)" d="M0 0h1000v1000H0z"/><path fill="rgba(32,32,32,1)" transform="rotate(44 1500 1500)" d="M0 0h1000v1000H0z"/><path fill="rgba(32,32,32,1)" transform="rotate(45 1500 1500)" d="M0 0h1000v1000H0z"/><path fill="rgba(33,33,33,1)" transform="rotate(46 1500 1500)" d="M0 0h1000v1000H0z"/><path fill="rgba(34,34,34,1)" transform="rotate(47 1500 1500)" d="M0 0h1000v1000H0z"/><path fill="rgba(34,34,34,1)" transform="rotate(48 1500 1500)" d="M0 0h1000v1000H0z"/><path fill="rgba(35,35,35,1)" transform="rotate(49 1500 1500)" d="M0 0h1000v1000H0z"/><path fill="rgba(36,36,36,1)" transform="rotate(50 1500 1500)" d="M0 0h1000v1000H0z"/><path fill="rgba(37,37,37,1)" transform="rotate(51 1500 1500)" d="M0 0h1000v1000H0z"/><path fill="rgba(37,37,37,1)" transform="rotate(52 1500 1500)" d="M0 0h1000v1000H0z"/><path fill="rgba(38,38,38,1)" transform="rotate(53 1500 1500)" d="M0 0h1000v1000H0z"/><path fill="rgba(39,39,39,1)" transform="rotate(54 1500 1500)" d="M0 0h1000v1000H0z"/><path fill="rgba(39,39,39,1)" transform="rotate(55 1500 1500)" d="M0 0h1000v1000H0z"/><path fill="rgba(40,40,40,1)" transform="rotate(56 1500 1500)" d="M0 0h1000v1000H0z"/><path fill="rgba(41,41,41,1)" transform="rotate(57 1500 1500)" d="M0 0h1000v1000H0z"/><path fill="rgba(42,42,42,1)" transform="rotate(58 1500 1500)" d="M0 0h1000v1000H0z"/><path fill="rgba(42,42,42,1)" transform="rotate(59 1500 1500)" d="M0 0h1000v1000H0z"/><path fill="rgba(43,43,43,1)" transform="rotate(60 1500 1500)" d="M0 0h1000v1000H0z"/><path fill="rgba(44,44,44,1)" transform="rotate(61 1500 1500)" d="M0 0h1000v1000H0z"/><path fill="rgba(44,44,44,1)" transform="rotate(62 1500 1500)" d="M0 0h1000v1000H0z"/><path fill="rgba(45,45,45,1)" transform="rotate(63 1500 1500)" d="M0 0h1000v1000H0z"/><path fill="rgba(46,46,46,1)" transform="rotate(64 1500 1500)" d="M0 0h1000v1000H0z"/><path fill="rgba(47,47,47,1)" transform="rotate(65 1500 1500)" d="M0 0h1000v1000H0z"/><path fill="rgba(47,47,47,1)" transform="rotate(66 1500 1500)" d="M0 0h1000v1000H0z"/><path fill="rgba(48,48,48,1)" transform="rotate(67 1500 1500)" d="M0 0h1000v1000H0z"/><path fill="rgba(49,49,49,1)" transform="rotate(68 1500 1500)" d="M0 0h1000v1000H0z"/><path fill="rgba(49,49,49,1)" transform="rotate(69 1500 1500)" d="M0 0h1000v1000H0z"/><path fill="rgba(50,50,50,1)" transform="rotate(70 1500 1500)" d="M0 0h1000v1000H0z"/><path fill="rgba(51,51,51,1)" transform="rotate(71 1500 1500)" d="M0 0h1000v1000H0z"/><path fill="rgba(51,51,51,1)" transform="rotate(72 1500 1500)" d="M0 0h1000v1000H0z"/><path fill="rgba(52,52,52,1)" transform="rotate(73 1500 1500)" d="M0 0h1000v1000H0z"/><path fill="rgba(53,53,53,1)" transform="rotate(74 1500 1500)" d="M0 0h1000v1000H0z"/><path fill="rgba(54,54,54,1)" transform="rotate(75 1500 1500)" d="M0 0h1000v1000H0z"/><path fill="rgba(54,54,54,1)" transform="rotate(76 1500 1500)" d="M0 0h1000v1000H0z"/><path fill="rgba(55,55,55,1)" transform="rotate(77 1500 1500)" d="M0 0h1000v1000H0z"/><path fill="rgba(56,56,56,1)" transform="rotate(78 1500 1500)" d="M0 0h1000v1000H0z"/><path fill="rgba(56,56,56,1)" transform="rotate(79 1500 1500)" d="M0 0h1000v1000H0z"/><path fill="rgba(57,57,57,1)" transform="rotate(80 1500 1500)" d="M0 0h1000v1000H0z"/><path fill="rgba(58,58,58,1)" transform="rotate(81 1500 1500)" d="M0 0h1000v1000H0z"/><path fill="rgba(59,59,59,1)" transform="rotate(82 1500 1500)" d="M0 0h1000v1000H0z"/><path fill="rgba(59,59,59,1)" transform="rotate(83 1500 1500)" d="M0 0h1000v1000H0z"/><path fill="rgba(60,60,60,1)" transform="rotate(84 1500 1500)" d="M0 0h1000v1000H0z"/><path fill="rgba(61,61,61,1)" transform="rotate(85 1500 1500)" d="M0 0h1000v1000H0z"/><path fill="rgba(61,61,61,1)" transform="rotate(86 1500 1500)" d="M0 0h1000v1000H0z"/><path fill="rgba(62,62,62,1)" transform="rotate(87 1500 1500)" d="M0 0h1000v1000H0z"/><path fill="rgba(63,63,63,1)" transform="rotate(88 1500 1500)" d="M0 0h1000v1000H0z"/><path fill="rgba(64,64,64,1)" transform="rotate(89 1500 1500)" d="M0 0h1000v1000H0z"/><path fill="rgba(64,64,64,1)" transform="rotate(90 1500 1500)" d="M0 0h1000v1000H0z"/><path fill="rgba(65,65,65,1)" transform="rotate(91 1500 1500)" d="M0 0h1000v1000H0z"/><path fill="rgba(66,66,66,1)" transform="rotate(92 1500 1500)" d="M0 0h1000v1000H0z"/><path fill="rgba(66,66,66,1)" transform="rotate(93 1500 1500)" d="M0 0h1000v1000H0z"/><path fill="rgba(67,67,67,1)" transform="rotate(94 1500 1500)" d="M0 0h1000v1000H0z"/><path fill="rgba(68,68,68,1)" transform="rotate(95 1500 1500)" d="M0 0h1000v1000H0z"/><path fill="rgba(68,68,68,1)" transform="rotate(96 1500 1500)" d="M0 0h1000v1000H0z"/><path fill="rgba(69,69,69,1)" transform="rotate(97 1500 1500)" d="M0 0h1000v1000H0z"/><path fill="rgba(70,70,70,1)" transform="rotate(98 1500 1500)" d="M0 0h1000v1000H0z"/><path fill="rgba(71,71,71,1)" transform="rotate(99 1500 1500)" d="M0 0h1000v1000H0z"/><path fill="rgba(71,71,71,1)" transform="rotate(100 1500 1500)" d="M0 0h1000v1000H0z"/><path fill="rgba(72,72,72,1)" transform="rotate(101 1500 1500)" d="M0 0h1000v1000H0z"/><path fill="rgba(73,73,73,1)" transform="rotate(102 1500 1500)" d="M0 0h1000v1000H0z"/><path fill="rgba(73,73,73,1)" transform="rotate(103 1500 1500)" d="M0 0h1000v1000H0z"/><path fill="rgba(74,74,74,1)" transform="rotate(104 1500 1500)" d="M0 0h1000v1000H0z"/><path fill="rgba(75,75,75,1)" transform="rotate(105 1500 1500)" d="M0 0h1000v1000H0z"/><path fill="rgba(76,76,76,1)" transform="rotate(106 1500 1500)" d="M0 0h1000v1000H0z"/><path fill="rgba(76,76,76,1)" transform="rotate(107 1500 1500)" d="M0 0h1000v1000H0z"/><path fill="rgba(77,77,77,1)" transform="rotate(108 1500 1500)" d="M0 0h1000v1000H0z"/><path fill="rgba(78,78,78,1)" transform="rotate(109 1500 1500)" d="M0 0h1000v1000H0z"/><path fill="rgba(78,78,78,1)" transform="rotate(110 1500 1500)" d="M0 0h1000v1000H0z"/><path fill="rgba(79,79,79,1)" transform="rotate(111 1500 1500)" d="M0 0h1000v1000H0z"/><path fill="rgba(80,80,80,1)" transform="rotate(112 1500 1500)" d="M0 0h1000v1000H0z"/><path fill="rgba(81,81,81,1)" transform="rotate(113 1500 1500)" d="M0 0h1000v1000H0z"/><path fill="rgba(81,81,81,1)" transform="rotate(114 1500 1500)" d="M0 0h1000v1000H0z"/><path fill="rgba(82,82,82,1)" transform="rotate(115 1500 1500)" d="M0 0h1000v1000H0z"/><path fill="rgba(83,83,83,1)" transform="rotate(116 1500 1500)" d="M0 0h1000v1000H0z"/><path fill="rgba(83,83,83,1)" transform="rotate(117 1500 1500)" d="M0 0h1000v1000H0z"/><path fill="rgba(84,84,84,1)" transform="rotate(118 1500 1500)" d="M0 0h1000v1000H0z"/><path fill="rgba(85,85,85,1)" transform="rotate(119 1500 1500)" d="M0 0h1000v1000H0z"/><path fill="rgba(85,85,85,1)" transform="rotate(120 1500 1500)" d="M0 0h1000v1000H0z"/><path fill="rgba(86,86,86,1)" transform="rotate(121 1500 1500)" d="M0 0h1000v1000H0z"/><path fill="rgba(87,87,87,1)" transform="rotate(122 1500 1500)" d="M0 0h1000v1000H0z"/><path fill="rgba(88,88,88,1)" transform="rotate(123 1500 1500)" d="M0 0h1000v1000H0z"/><path fill="rgba(88,88,88,1)" transform="rotate(124 1500 1500)" d="M0 0h1000v1000H0z"/><path fill="rgba(89,89,89,1)" transform="rotate(125 1500 1500)" d="M0 0h1000v1000H0z"/><path fill="rgba(90,90,90,1)" transform="rotate(126 1500 1500)" d="M0 0h1000v1000H0z"/><path fill="rgba(90,90,90,1)" transform="rotate(127 1500 1500)" d="M0 0h1000v1000H0z"/><path fill="rgba(91,91,91,1)" transform="rotate(128 1500 1500)" d="M0 0h1000v1000H0z"/><path fill="rgba(92,92,92,1)" transform="rotate(129 1500 1500)" d="M0 0h1000v1000H0z"/><path fill="rgba(93,93,93,1)" transform="rotate(130 1500 1500)" d="M0 0h1000v1000H0z"/><path fill="rgba(93,93,93,1)" transform="rotate(131 1500 1500)" d="M0 0h1000v1000H0z"/><path fill="rgba(94,94,94,1)" transform="rotate(132 1500 1500)" d="M0 0h1000v1000H0z"/><path fill="rgba(95,95,95,1)" transform="rotate(133 1500 1500)" d="M0 0h1000v1000H0z"/><path fill="rgba(95,95,95,1)" transform="rotate(134 1500 1500)" d="M0 0h1000v1000H0z"/><path fill="rgba(96,96,96,1)" transform="rotate(135 1500 1500)" d="M0 0h1000v1000H0z"/><path fill="rgba(97,97,97,1)" transform="rotate(136 1500 1500)" d="M0 0h1000v1000H0z"/><path fill="rgba(98,98,98,1)" transform="rotate(137 1500 1500)" d="M0 0h1000v1000H0z"/><path fill="rgba(98,98,98,1)" transform="rotate(138 1500 1500)" d="M0 0h1000v1000H0z"/><path fill="rgba(99,99,99,1)" transform="rotate(139 1500 1500)" d="M0 0h1000v1000H0z"/><path fill="rgba(100,100,100,1)" transform="rotate(140 1500 1500)" d="M0 0h1000v1000H0z"/><path fill="rgba(100,100,100,1)" transform="rotate(141 1500 1500)" d="M0 0h1000v1000H0z"/><path fill="rgba(101,101,101,1)" transform="rotate(142 1500 1500)" d="M0 0h1000v1000H0z"/><path fill="rgba(102,102,102,1)" transform="rotate(143 1500 1500)" d="M0 0h1000v1000H0z"/><path fill="rgba(102,102,102,1)" transform="rotate(144 1500 1500)" d="M0 0h1000v1000H0z"/><path fill="rgba(103,103,103,1)" transform="rotate(145 1500 1500)" d="M0 0h1000v1000H0z"/><path fill="rgba(104,104,104,1)" transform="rotate(146 1500 1500)" d="M0 0h1000v1000H0z"/><path fill="rgba(105,105,105,1)" transform="rotate(147 1500 1500)" d="M0 0h1000v1000H0z"/><path fill="rgba(105,105,105,1)" transform="rotate(148 1500 1500)" d="M0 0h1000v1000H0z"/><path fill="rgba(106,106,106,1)" transform="rotate(149 1500 1500)" d="M0 0h1000v1000H0z"/><path fill="rgba(107,107,107,1)" transform="rotate(150 1500 1500)" d="M0 0h1000v1000H0z"/><path fill="rgba(107,107,107,1)" transform="rotate(151 1500 1500)" d="M0 0h1000v1000H0z"/><path fill="rgba(108,108,108,1)" transform="rotate(152 1500 1500)" d="M0 0h1000v1000H0z"/><path fill="rgba(109,109,109,1)" transform="rotate(153 1500 1500)" d="M0 0h1000v1000H0z"/><path fill="rgba(110,110,110,1)" transform="rotate(154 1500 1500)" d="M0 0h1000v1000H0z"/><path fill="rgba(110,110,110,1)" transform="rotate(155 1500 1500)" d="M0 0h1000v1000H0z"/><path fill="rgba(111,111,111,1)" transform="rotate(156 1500 1500)" d="M0 0h1000v1000H0z"/><path fill="rgba(112,112,112,1)" transform="rotate(157 1500 1500)" d="M0 0h1000v1000H0z"/><path fill="rgba(112,112,112,1)" transform="rotate(158 1500 1500)" d="M0 0h1000v1000H0z"/><path fill="rgba(113,113,113,1)" transform="rotate(159 1500 1500)" d="M0 0h1000v1000H0z"/><path fill="rgba(114,114,114,1)" transform="rotate(160 1500 1500)" d="M0 0h1000v1000H0z"/><path fill="rgba(115,115,115,1)" transform="rotate(161 1500 1500)" d="M0 0h1000v1000H0z"/><path fill="rgba(115,115,115,1)" transform="rotate(162 1500 1500)" d="M0 0h1000v1000H0z"/><path fill="rgba(116,116,116,1)" transform="rotate(163 1500 1500)" d="M0 0h1000v1000H0z"/><path fill="rgba(117,117,117,1)" transform="rotate(164 1500 1500)" d="M0 0h1000v1000H0z"/><path fill="rgba(117,117,117,1)" transform="rotate(165 1500 1500)" d="M0 0h1000v1000H0z"/><path fill="rgba(118,118,118,1)" transform="rotate(166 1500 1500)" d="M0 0h1000v1000H0z"/><path fill="rgba(119,119,119,1)" transform="rotate(167 1500 1500)" d="M0 0h1000v1000H0z"/><path fill="rgba(119,119,119,1)" transform="rotate(168 1500 1500)" d="M0 0h1000v1000H0z"/><path fill="rgba(120,120,120,1)" transform="rotate(169 1500 1500)" d="M0 0h1000v1000H0z"/><path fill="rgba(121,121,121,1)" transform="rotate(170 1500 1500)" d="M0 0h1000v1000H0z"/><path fill="rgba(122,122,122,1)" transform="rotate(171 1500 1500)" d="M0 0h1000v1000H0z"/><path fill="rgba(122,122,122,1)" transform="rotate(172 1500 1500)" d="M0 0h1000v1000H0z"/><path fill="rgba(123,123,123,1)" transform="rotate(173 1500 1500)" d="M0 0h1000v1000H0z"/><path fill="rgba(124,124,124,1)" transform="rotate(174 1500 1500)" d="M0 0h1000v1000H0z"/><path fill="rgba(124,124,124,1)" transform="rotate(175 1500 1500)" d="M0 0h1000v1000H0z"/><path fill="rgba(125,125,125,1)" transform="rotate(176 1500 1500)" d="M0 0h1000v1000H0z"/><path fill="rgba(126,126,126,1)" transform="rotate(177 1500 1500)" d="M0 0h1000v1000H0z"/><path fill="rgba(127,127,127,1)" transform="rotate(178 1500 1500)" d="M0 0h1000v1000H0z"/><path fill="rgba(127,127,127,1)" transform="rotate(179 1500 1500)" d="M0 0h1000v1000H0z"/><path fill="rgba(128,128,128,1)" transform="rotate(180 1500 1500)" d="M0 0h1000v1000H0z"/><g clip-path="url(#a)"><path fill="rgba(129,129,129,1)" transform="rotate(181 1500 1500)" d="M0 0h1000v1000H0z"/><path fill="rgba(129,129,129,1)" transform="rotate(182 1500 1500)" d="M0 0h1000v1000H0z"/><path fill="rgba(130,130,130,1)" transform="rotate(183 1500 1500)" d="M0 0h1000v1000H0z"/><path fill="rgba(131,131,131,1)" transform="rotate(184 1500 1500)" d="M0 0h1000v1000H0z"/><path fill="rgba(132,132,132,1)" transform="rotate(185 1500 1500)" d="M0 0h1000v1000H0z"/><path fill="rgba(132,132,132,1)" transform="rotate(186 1500 1500)" d="M0 0h1000v1000H0z"/><path fill="rgba(133,133,133,1)" transform="rotate(187 1500 1500)" d="M0 0h1000v1000H0z"/><path fill="rgba(134,134,134,1)" transform="rotate(188 1500 1500)" d="M0 0h1000v1000H0z"/><path fill="rgba(134,134,134,1)" transform="rotate(189 1500 1500)" d="M0 0h1000v1000H0z"/><path fill="rgba(135,135,135,1)" transform="rotate(190 1500 1500)" d="M0 0h1000v1000H0z"/><path fill="rgba(136,136,136,1)" transform="rotate(191 1500 1500)" d="M0 0h1000v1000H0z"/><path fill="rgba(136,136,136,1)" transform="rotate(192 1500 1500)" d="M0 0h1000v1000H0z"/><path fill="rgba(137,137,137,1)" transform="rotate(193 1500 1500)" d="M0 0h1000v1000H0z"/><path fill="rgba(138,138,138,1)" transform="rotate(194 1500 1500)" d="M0 0h1000v1000H0z"/><path fill="rgba(139,139,139,1)" transform="rotate(195 1500 1500)" d="M0 0h1000v1000H0z"/><path fill="rgba(139,139,139,1)" transform="rotate(196 1500 1500)" d="M0 0h1000v1000H0z"/><path fill="rgba(140,140,140,1)" transform="rotate(197 1500 1500)" d="M0 0h1000v1000H0z"/><path fill="rgba(141,141,141,1)" transform="rotate(198 1500 1500)" d="M0 0h1000v1000H0z"/><path fill="rgba(141,141,141,1)" transform="rotate(199 1500 1500)" d="M0 0h1000v1000H0z"/><path fill="rgba(142,142,142,1)" transform="rotate(200 1500 1500)" d="M0 0h1000v1000H0z"/><path fill="rgba(143,143,143,1)" transform="rotate(201 1500 1500)" d="M0 0h1000v1000H0z"/><path fill="rgba(144,144,144,1)" transform="rotate(202 1500 1500)" d="M0 0h1000v1000H0z"/><path fill="rgba(144,144,144,1)" transform="rotate(203 1500 1500)" d="M0 0h1000v1000H0z"/><path fill="rgba(145,145,145,1)" transform="rotate(204 1500 1500)" d="M0 0h1000v1000H0z"/><path fill="rgba(146,146,146,1)" transform="rotate(205 1500 1500)" d="M0 0h1000v1000H0z"/><path fill="rgba(146,146,146,1)" transform="rotate(206 1500 1500)" d="M0 0h1000v1000H0z"/><path fill="rgba(147,147,147,1)" transform="rotate(207 1500 1500)" d="M0 0h1000v1000H0z"/><path fill="rgba(148,148,148,1)" transform="rotate(208 1500 1500)" d="M0 0h1000v1000H0z"/><path fill="rgba(149,149,149,1)" transform="rotate(209 1500 1500)" d="M0 0h1000v1000H0z"/><path fill="rgba(149,149,149,1)" transform="rotate(210 1500 1500)" d="M0 0h1000v1000H0z"/><path fill="rgba(150,150,150,1)" transform="rotate(211 1500 1500)" d="M0 0h1000v1000H0z"/><path fill="rgba(151,151,151,1)" transform="rotate(212 1500 1500)" d="M0 0h1000v1000H0z"/><path fill="rgba(151,151,151,1)" transform="rotate(213 1500 1500)" d="M0 0h1000v1000H0z"/><path fill="rgba(152,152,152,1)" transform="rotate(214 1500 1500)" d="M0 0h1000v1000H0z"/><path fill="rgba(153,153,153,1)" transform="rotate(215 1500 1500)" d="M0 0h1000v1000H0z"/><path fill="rgba(153,153,153,1)" transform="rotate(216 1500 1500)" d="M0 0h1000v1000H0z"/><path fill="rgba(154,154,154,1)" transform="rotate(217 1500 1500)" d="M0 0h1000v1000H0z"/><path fill="rgba(155,155,155,1)" transform="rotate(218 1500 1500)" d="M0 0h1000v1000H0z"/><path fill="rgba(156,156,156,1)" transform="rotate(219 1500 1500)" d="M0 0h1000v1000H0z"/><path fill="rgba(156,156,156,1)" transform="rotate(220 1500 1500)" d="M0 0h1000v1000H0z"/><path fill="rgba(157,157,157,1)" transform="rotate(221 1500 1500)" d="M0 0h1000v1000H0z"/><path fill="rgba(158,158,158,1)" transform="rotate(222 1500 1500)" d="M0 0h1000v1000H0z"/><path fill="rgba(158,158,158,1)" transform="rotate(223 1500 1500)" d="M0 0h1000v1000H0z"/><path fill="rgba(159,159,159,1)" transform="rotate(224 1500 1500)" d="M0 0h1000v1000H0z"/><path fill="rgba(160,160,160,1)" transform="rotate(225 1500 1500)" d="M0 0h1000v1000H0z"/><path fill="rgba(161,161,161,1)" transform="rotate(226 1500 1500)" d="M0 0h1000v1000H0z"/><path fill="rgba(161,161,161,1)" transform="rotate(227 1500 1500)" d="M0 0h1000v1000H0z"/><path fill="rgba(162,162,162,1)" transform="rotate(228 1500 1500)" d="M0 0h1000v1000H0z"/><path fill="rgba(163,163,163,1)" transform="rotate(229 1500 1500)" d="M0 0h1000v1000H0z"/><path fill="rgba(163,163,163,1)" transform="rotate(230 1500 1500)" d="M0 0h1000v1000H0z"/><path fill="rgba(164,164,164,1)" transform="rotate(231 1500 1500)" d="M0 0h1000v1000H0z"/><path fill="rgba(165,165,165,1)" transform="rotate(232 1500 1500)" d="M0 0h1000v1000H0z"/><path fill="rgba(166,166,166,1)" transform="rotate(233 1500 1500)" d="M0 0h1000v1000H0z"/><path fill="rgba(166,166,166,1)" transform="rotate(234 1500 1500)" d="M0 0h1000v1000H0z"/><path fill="rgba(167,167,167,1)" transform="rotate(235 1500 1500)" d="M0 0h1000v1000H0z"/><path fill="rgba(168,168,168,1)" transform="rotate(236 1500 1500)" d="M0 0h1000v1000H0z"/><path fill="rgba(168,168,168,1)" transform="rotate(237 1500 1500)" d="M0 0h1000v1000H0z"/><path fill="rgba(169,169,169,1)" transform="rotate(238 1500 1500)" d="M0 0h1000v1000H0z"/><path fill="rgba(170,170,170,1)" transform="rotate(239 1500 1500)" d="M0 0h1000v1000H0z"/><path fill="rgba(170,170,170,1)" transform="rotate(240 1500 1500)" d="M0 0h1000v1000H0z"/><path fill="rgba(171,171,171,1)" transform="rotate(241 1500 1500)" d="M0 0h1000v1000H0z"/><path fill="rgba(172,172,172,1)" transform="rotate(242 1500 1500)" d="M0 0h1000v1000H0z"/><path fill="rgba(173,173,173,1)" transform="rotate(243 1500 1500)" d="M0 0h1000v1000H0z"/><path fill="rgba(173,173,173,1)" transform="rotate(244 1500 1500)" d="M0 0h1000v1000H0z"/><path fill="rgba(174,174,174,1)" transform="rotate(245 1500 1500)" d="M0 0h1000v1000H0z"/><path fill="rgba(175,175,175,1)" transform="rotate(246 1500 1500)" d="M0 0h1000v1000H0z"/><path fill="rgba(175,175,175,1)" transform="rotate(247 1500 1500)" d="M0 0h1000v1000H0z"/><path fill="rgba(176,176,176,1)" transform="rotate(248 1500 1500)" d="M0 0h1000v1000H0z"/><path fill="rgba(177,177,177,1)" transform="rotate(249 1500 1500)" d="M0 0h1000v1000H0z"/><path fill="rgba(178,178,178,1)" transform="rotate(250 1500 1500)" d="M0 0h1000v1000H0z"/><path fill="rgba(178,178,178,1)" transform="rotate(251 1500 1500)" d="M0 0h1000v1000H0z"/><path fill="rgba(179,179,179,1)" transform="rotate(252 1500 1500)" d="M0 0h1000v1000H0z"/><path fill="rgba(180,180,180,1)" transform="rotate(253 1500 1500)" d="M0 0h1000v1000H0z"/><path fill="rgba(180,180,180,1)" transform="rotate(254 1500 1500)" d="M0 0h1000v1000H0z"/><path fill="rgba(181,181,181,1)" transform="rotate(255 1500 1500)" d="M0 0h1000v1000H0z"/><path fill="rgba(182,182,182,1)" transform="rotate(256 1500 1500)" d="M0 0h1000v1000H0z"/><path fill="rgba(183,183,183,1)" transform="rotate(257 1500 1500)" d="M0 0h1000v1000H0z"/><path fill="rgba(183,183,183,1)" transform="rotate(258 1500 1500)" d="M0 0h1000v1000H0z"/><path fill="rgba(184,184,184,1)" transform="rotate(259 1500 1500)" d="M0 0h1000v1000H0z"/><path fill="rgba(185,185,185,1)" transform="rotate(260 1500 1500)" d="M0 0h1000v1000H0z"/><path fill="rgba(185,185,185,1)" transform="rotate(261 1500 1500)" d="M0 0h1000v1000H0z"/><path fill="rgba(186,186,186,1)" transform="rotate(262 1500 1500)" d="M0 0h1000v1000H0z"/><path fill="rgba(187,187,187,1)" transform="rotate(263 1500 1500)" d="M0 0h1000v1000H0z"/><path fill="rgba(187,187,187,1)" transform="rotate(264 1500 1500)" d="M0 0h1000v1000H0z"/><path fill="rgba(188,188,188,1)" transform="rotate(265 1500 1500)" d="M0 0h1000v1000H0z"/><path fill="rgba(189,189,189,1)" transform="rotate(266 1500 1500)" d="M0 0h1000v1000H0z"/><path fill="rgba(190,190,190,1)" transform="rotate(267 1500 1500)" d="M0 0h1000v1000H0z"/><path fill="rgba(190,190,190,1)" transform="rotate(268 1500 1500)" d="M0 0h1000v1000H0z"/><path fill="rgba(191,191,191,1)" transform="rotate(269 1500 1500)" d="M0 0h1000v1000H0z"/><path fill="rgba(192,192,192,1)" transform="rotate(270 1500 1500)" d="M0 0h1000v1000H0z"/><path fill="rgba(192,192,192,1)" transform="rotate(271 1500 1500)" d="M0 0h1000v1000H0z"/><path fill="rgba(193,193,193,1)" transform="rotate(272 1500 1500)" d="M0 0h1000v1000H0z"/><path fill="rgba(194,194,194,1)" transform="rotate(273 1500 1500)" d="M0 0h1000v1000H0z"/><path fill="rgba(195,195,195,1)" transform="rotate(274 1500 1500)" d="M0 0h1000v1000H0z"/><path fill="rgba(195,195,195,1)" transform="rotate(275 1500 1500)" d="M0 0h1000v1000H0z"/><path fill="rgba(196,196,196,1)" transform="rotate(276 1500 1500)" d="M0 0h1000v1000H0z"/><path fill="rgba(197,197,197,1)" transform="rotate(277 1500 1500)" d="M0 0h1000v1000H0z"/><path fill="rgba(197,197,197,1)" transform="rotate(278 1500 1500)" d="M0 0h1000v1000H0z"/><path fill="rgba(198,198,198,1)" transform="rotate(279 1500 1500)" d="M0 0h1000v1000H0z"/><path fill="rgba(199,199,199,1)" transform="rotate(280 1500 1500)" d="M0 0h1000v1000H0z"/><path fill="rgba(200,200,200,1)" transform="rotate(281 1500 1500)" d="M0 0h1000v1000H0z"/><path fill="rgba(200,200,200,1)" transform="rotate(282 1500 1500)" d="M0 0h1000v1000H0z"/><path fill="rgba(201,201,201,1)" transform="rotate(283 1500 1500)" d="M0 0h1000v1000H0z"/><path fill="rgba(202,202,202,1)" transform="rotate(284 1500 1500)" d="M0 0h1000v1000H0z"/><path fill="rgba(202,202,202,1)" transform="rotate(285 1500 1500)" d="M0 0h1000v1000H0z"/><path fill="rgba(203,203,203,1)" transform="rotate(286 1500 1500)" d="M0 0h1000v1000H0z"/><path fill="rgba(204,204,204,1)" transform="rotate(287 1500 1500)" d="M0 0h1000v1000H0z"/><path fill="rgba(205,205,205,1)" transform="rotate(288 1500 1500)" d="M0 0h1000v1000H0z"/><path fill="rgba(205,205,205,1)" transform="rotate(289 1500 1500)" d="M0 0h1000v1000H0z"/><path fill="rgba(206,206,206,1)" transform="rotate(290 1500 1500)" d="M0 0h1000v1000H0z"/><path fill="rgba(207,207,207,1)" transform="rotate(291 1500 1500)" d="M0 0h1000v1000H0z"/><path fill="rgba(207,207,207,1)" transform="rotate(292 1500 1500)" d="M0 0h1000v1000H0z"/><path fill="rgba(208,208,208,1)" transform="rotate(293 1500 1500)" d="M0 0h1000v1000H0z"/><path fill="rgba(209,209,209,1)" transform="rotate(294 1500 1500)" d="M0 0h1000v1000H0z"/><path fill="rgba(209,209,209,1)" transform="rotate(295 1500 1500)" d="M0 0h1000v1000H0z"/><path fill="rgba(210,210,210,1)" transform="rotate(296 1500 1500)" d="M0 0h1000v1000H0z"/><path fill="rgba(211,211,211,1)" transform="rotate(297 1500 1500)" d="M0 0h1000v1000H0z"/><path fill="rgba(212,212,212,1)" transform="rotate(298 1500 1500)" d="M0 0h1000v1000H0z"/><path fill="rgba(212,212,212,1)" transform="rotate(299 1500 1500)" d="M0 0h1000v1000H0z"/><path fill="rgba(213,213,213,1)" transform="rotate(300 1500 1500)" d="M0 0h1000v1000H0z"/><path fill="rgba(214,214,214,1)" transform="rotate(301 1500 1500)" d="M0 0h1000v1000H0z"/><path fill="rgba(214,214,214,1)" transform="rotate(302 1500 1500)" d="M0 0h1000v1000H0z"/><path fill="rgba(215,215,215,1)" transform="rotate(303 1500 1500)" d="M0 0h1000v1000H0z"/><path fill="rgba(216,216,216,1)" transform="rotate(304 1500 1500)" d="M0 0h1000v1000H0z"/><path fill="rgba(217,217,217,1)" transform="rotate(305 1500 1500)" d="M0 0h1000v1000H0z"/><path fill="rgba(217,217,217,1)" transform="rotate(306 1500 1500)" d="M0 0h1000v1000H0z"/><path fill="rgba(218,218,218,1)" transform="rotate(307 1500 1500)" d="M0 0h1000v1000H0z"/><path fill="rgba(219,219,219,1)" transform="rotate(308 1500 1500)" d="M0 0h1000v1000H0z"/><path fill="rgba(219,219,219,1)" transform="rotate(309 1500 1500)" d="M0 0h1000v1000H0z"/><path fill="rgba(220,220,220,1)" transform="rotate(310 1500 1500)" d="M0 0h1000v1000H0z"/><path fill="rgba(221,221,221,1)" transform="rotate(311 1500 1500)" d="M0 0h1000v1000H0z"/><path fill="rgba(222,222,222,1)" transform="rotate(312 1500 1500)" d="M0 0h1000v1000H0z"/><path fill="rgba(222,222,222,1)" transform="rotate(313 1500 1500)" d="M0 0h1000v1000H0z"/><path fill="rgba(223,223,223,1)" transform="rotate(314 1500 1500)" d="M0 0h1000v1000H0z"/><path fill="rgba(224,224,224,1)" transform="rotate(315 1500 1500)" d="M0 0h1000v1000H0z"/><path fill="rgba(224,224,224,1)" transform="rotate(316 1500 1500)" d="M0 0h1000v1000H0z"/><path fill="rgba(225,225,225,1)" transform="rotate(317 1500 1500)" d="M0 0h1000v1000H0z"/><path fill="rgba(226,226,226,1)" transform="rotate(318 1500 1500)" d="M0 0h1000v1000H0z"/><path fill="rgba(226,226,226,1)" transform="rotate(319 1500 1500)" d="M0 0h1000v1000H0z"/><path fill="rgba(227,227,227,1)" transform="rotate(320 1500 1500)" d="M0 0h1000v1000H0z"/><path fill="rgba(228,228,228,1)" transform="rotate(321 1500 1500)" d="M0 0h1000v1000H0z"/><path fill="rgba(229,229,229,1)" transform="rotate(322 1500 1500)" d="M0 0h1000v1000H0z"/><path fill="rgba(229,229,229,1)" transform="rotate(323 1500 1500)" d="M0 0h1000v1000H0z"/><path fill="rgba(230,230,230,1)" transform="rotate(324 1500 1500)" d="M0 0h1000v1000H0z"/><path fill="rgba(231,231,231,1)" transform="rotate(325 1500 1500)" d="M0 0h1000v1000H0z"/><path fill="rgba(231,231,231,1)" transform="rotate(326 1500 1500)" d="M0 0h1000v1000H0z"/><path fill="rgba(232,232,232,1)" transform="rotate(327 1500 1500)" d="M0 0h1000v1000H0z"/><path fill="rgba(233,233,233,1)" transform="rotate(328 1500 1500)" d="M0 0h1000v1000H0z"/><path fill="rgba(234,234,234,1)" transform="rotate(329 1500 1500)" d="M0 0h1000v1000H0z"/><path fill="rgba(234,234,234,1)" transform="rotate(330 1500 1500)" d="M0 0h1000v1000H0z"/><path fill="rgba(235,235,235,1)" transform="rotate(331 1500 1500)" d="M0 0h1000v1000H0z"/><path fill="rgba(236,236,236,1)" transform="rotate(332 1500 1500)" d="M0 0h1000v1000H0z"/><path fill="rgba(236,236,236,1)" transform="rotate(333 1500 1500)" d="M0 0h1000v1000H0z"/><path fill="rgba(237,237,237,1)" transform="rotate(334 1500 1500)" d="M0 0h1000v1000H0z"/><path fill="rgba(238,238,238,1)" transform="rotate(335 1500 1500)" d="M0 0h1000v1000H0z"/><path fill="rgba(239,239,239,1)" transform="rotate(336 1500 1500)" d="M0 0h1000v1000H0z"/><path fill="rgba(239,239,239,1)" transform="rotate(337 1500 1500)" d="M0 0h1000v1000H0z"/><path fill="rgba(240,240,240,1)" transform="rotate(338 1500 1500)" d="M0 0h1000v1000H0z"/><path fill="rgba(241,241,241,1)" transform="rotate(339 1500 1500)" d="M0 0h1000v1000H0z"/><path fill="rgba(241,241,241,1)" transform="rotate(340 1500 1500)" d="M0 0h1000v1000H0z"/><path fill="rgba(242,242,242,1)" transform="rotate(341 1500 1500)" d="M0 0h1000v1000H0z"/><path fill="rgba(243,243,243,1)" transform="rotate(342 1500 1500)" d="M0 0h1000v1000H0z"/><path fill="rgba(243,243,243,1)" transform="rotate(343 1500 1500)" d="M0 0h1000v1000H0z"/><path fill="rgba(244,244,244,1)" transform="rotate(344 1500 1500)" d="M0 0h1000v1000H0z"/><path fill="rgba(245,245,245,1)" transform="rotate(345 1500 1500)" d="M0 0h1000v1000H0z"/><path fill="rgba(246,246,246,1)" transform="rotate(346 1500 1500)" d="M0 0h1000v1000H0z"/><path fill="rgba(246,246,246,1)" transform="rotate(347 1500 1500)" d="M0 0h1000v1000H0z"/><path fill="rgba(247,247,247,1)" transform="rotate(348 1500 1500)" d="M0 0h1000v1000H0z"/><path fill="rgba(248,248,248,1)" transform="rotate(349 1500 1500)" d="M0 0h1000v1000H0z"/><path fill="rgba(248,248,248,1)" transform="rotate(350 1500 1500)" d="M0 0h1000v1000H0z"/><path fill="rgba(249,249,249,1)" transform="rotate(-9 1500 1500)" d="M0 0h1000v1000H0z"/><path fill="rgba(250,250,250,1)" transform="rotate(-8 1500 1500)" d="M0 0h1000v1000H0z"/><path fill="rgba(251,251,251,1)" transform="rotate(-7 1500 1500)" d="M0 0h1000v1000H0z"/><path fill="rgba(251,251,251,1)" transform="rotate(-6 1500 1500)" d="M0 0h1000v1000H0z"/><path fill="rgba(252,252,252,1)" transform="rotate(-5 1500 1500)" d="M0 0h1000v1000H0z"/><path fill="rgba(253,253,253,1)" transform="rotate(-4 1500 1500)" d="M0 0h1000v1000H0z"/><path fill="rgba(253,253,253,1)" transform="rotate(-3 1500 1500)" d="M0 0h1000v1000H0z"/><path fill="rgba(254,254,254,1)" transform="rotate(-2 1500 1500)" d="M0 0h1000v1000H0z"/><path fill="rgba(255,255,255,1)" transform="rotate(-1 1500 1500)" d="M0 0h1000v1000H0z"/></g></mask></defs><g mask="url(#b)" transform="matrix(-.1 0 0 -.1 251 251)" fill="#888D93"><path d="M1015 2450c-105-22-215-60-300-102-181-91-381-275-487-448-65-106-136-277-145-350-5-43-2-54 21-85 21-27 34-35 59-35 52 0 94 32 107 82 16 64 39 126 75 199 135 275 362 469 650 556 84 25 103 27 275 27s191-2 275-27c373-112 647-411 726-792 25-122 25-318 0-440-79-381-353-680-726-792-84-25-103-27-275-27s-191 2-275 27c-297 89-536 300-665 587l-25 55-102-5-102-5 38-93c57-137 133-252 244-368C625 161 908 40 1260 40c345 0 628 118 866 362 190 193 294 408 339 695 30 192-7 451-92 648-129 298-395 549-701 659-189 67-462 87-657 46z"/></g></svg>
